<!--?xml version="1.0" encoding="utf-8"?-->
<!-- Svg Vector Icons : http://www.onlinewebfonts.com/icon -->

<svg version="1.1" xmlns="http://www.w3.org/2000/svg" xmlns:xlink="http://www.w3.org/1999/xlink" x="0px" y="0px" viewBox="0 0 256 256" enable-background="new 0 0 256 256" xml:space="preserve">
<metadata> Svg Vector Icons : http://www.onlinewebfonts.com/icon </metadata>
<g><g><g><path fill="#6c55fa" data-title="Layer 0" xs="0" d="M214.9,41.1c-7.1,1.9-4.5-0.5-62.2,57.2l-53.5,53.4l-24.6-24.5c-20.5-20.4-25.1-24.8-27.6-26.1c-12.9-6.7-28.4-1.6-34.4,11.3c-3.3,7-3.3,14.3,0,21.5c1.7,3.7,2.2,4.3,39.3,41.4c42.5,42.6,39.8,40.3,47.4,40.3c3.6,0,4.9-0.2,6.9-1.2c2-0.9,15-13.7,68.4-67c36.3-36.2,66.6-66.9,67.4-68.1c2-3.1,3.3-6.6,3.9-10.6c1.9-12-6.8-24.6-18.7-27.4C223.1,40.2,218.3,40.2,214.9,41.1z"/></g></g></g>
</svg>