<svg width="24" height="24" viewBox="0 0 24 24" fill="none" xmlns="http://www.w3.org/2000/svg">
<g clip-path="url(#clip0_70_779)">
<path d="M21.0578 7.3654C21.0112 7.25299 20.9428 7.15089 20.8566 7.06496L18.0747 4.28309C17.9892 4.19452 17.8869 4.12388 17.7738 4.07528C17.6606 4.02669 17.5389 4.0011 17.4158 4.00004C17.2927 3.99897 17.1706 4.02243 17.0566 4.06905C16.9427 4.11568 16.8391 4.18453 16.7521 4.2716C16.665 4.35866 16.5961 4.4622 16.5495 4.57616C16.5029 4.69012 16.4794 4.81222 16.4805 4.93535C16.4816 5.05847 16.5072 5.18015 16.5558 5.29328C16.6044 5.40642 16.675 5.50874 16.7636 5.59428L17.9625 6.79326H14.883C14.0822 6.79322 13.2951 7.00058 12.5983 7.39515C11.9015 7.78971 11.3187 8.35802 10.9068 9.04472L7.50365 14.7151C7.25666 15.1269 6.90729 15.4678 6.48951 15.7045C6.07173 15.9413 5.59978 16.0659 5.11958 16.0662H3.50981C3.26388 16.0662 3.02802 16.1639 2.85412 16.3378C2.68022 16.5117 2.58252 16.7475 2.58252 16.9935C2.58252 17.2394 2.68022 17.4752 2.85412 17.6491C3.02802 17.823 3.26388 17.9207 3.50981 17.9207H5.11866C5.91943 17.9208 6.70656 17.7134 7.40338 17.3189C8.10021 16.9243 8.68296 16.356 9.09487 15.6693L12.498 9.9989C12.745 9.58709 13.0944 9.24622 13.5122 9.00946C13.9299 8.77271 14.4019 8.64813 14.8821 8.64784H17.9607L16.7626 9.84683C16.5937 10.0217 16.5003 10.256 16.5024 10.4991C16.5045 10.7422 16.602 10.9748 16.7739 11.1467C16.9459 11.3186 17.1784 11.4162 17.4216 11.4183C17.6647 11.4204 17.8989 11.3269 18.0738 11.158L20.8557 8.37615C20.9421 8.29023 21.0107 8.18808 21.0574 8.07556C21.1042 7.96305 21.1283 7.8424 21.1283 7.72055M21.0578 7.3654C21.1042 7.47711 21.1281 7.59683 21.1283 7.71777L21.0578 7.3654Z" fill="#525073"/>
<path d="M20.8557 17.65L18.0747 20.4319C17.9008 20.6058 17.6648 20.7034 17.4188 20.7033C17.1728 20.7032 16.937 20.6054 16.7631 20.4314C16.5892 20.2575 16.4916 20.0215 16.4917 19.7755C16.4918 19.5295 16.5896 19.2937 16.7636 19.1198L17.9625 17.9208H14.883C14.0822 17.9209 13.2951 17.7135 12.5983 17.3189C11.9015 16.9244 11.3187 16.3561 10.9068 15.6694L7.50365 9.99898C7.25666 9.58716 6.90729 9.24629 6.48951 9.00954C6.07173 8.77278 5.59978 8.6482 5.11958 8.64791H3.50981C3.26388 8.64791 3.02802 8.55022 2.85412 8.37632C2.68022 8.20242 2.58252 7.96656 2.58252 7.72062C2.58252 7.47469 2.68022 7.23883 2.85412 7.06493C3.02802 6.89103 3.26388 6.79333 3.50981 6.79333H5.11866C5.91943 6.7933 6.70656 7.00066 7.40338 7.39522C8.10021 7.78978 8.68296 8.35809 9.09487 9.04479L12.498 14.7152C12.745 15.127 13.0944 15.4679 13.5122 15.7046C13.9299 15.9414 14.4019 16.0659 14.8821 16.0662H17.9607L16.7626 14.8672C16.5937 14.6924 16.5003 14.4581 16.5024 14.215C16.5045 13.9719 16.602 13.7393 16.7739 13.5674C16.9459 13.3954 17.1784 13.2979 17.4216 13.2958C17.6647 13.2937 17.8989 13.3871 18.0738 13.5561L20.8557 16.3379C21.0365 16.5178 21.1265 16.7552 21.1274 16.9907V16.9935C21.1275 17.1155 21.1035 17.2364 21.0567 17.349C21.0099 17.4617 20.9422 17.564 20.8557 17.65Z" fill="#525073"/>
</g>
<defs>
<clipPath id="clip0_70_779">
<rect width="24" height="24" fill="white"/>
</clipPath>
</defs>
</svg>
