<svg width="24" height="24" viewBox="0 0 24 24" fill="none" xmlns="http://www.w3.org/2000/svg">
<g clip-path="url(#clip0_75_340)">
<path d="M20.514 8.91071L13.3413 16.0834L10.8721 16.3566C10.1565 16.4358 9.54737 15.8321 9.62658 15.111L9.89972 12.6418L17.0724 5.46912C17.6979 4.84363 18.7086 4.84363 19.3313 5.46912L20.5113 6.64909C21.1368 7.27459 21.1368 8.28795 20.514 8.91071ZM17.8154 9.75472L16.2284 8.16776L11.1534 13.2455L10.9541 15.0291L12.7377 14.8297L17.8154 9.75472ZM19.5853 7.57778L18.4054 6.3978C18.2934 6.28582 18.1104 6.28582 18.0011 6.3978L17.1571 7.24181L18.7441 8.82877L19.5881 7.98476C19.6973 7.87004 19.6973 7.68977 19.5853 7.57778Z" fill="#F2F2FD"/>
<path d="M20.514 8.91071L13.3413 16.0834L10.8721 16.3566C10.1565 16.4358 9.54737 15.8321 9.62658 15.111L9.89972 12.6418L17.0724 5.46912C17.6979 4.84363 18.7086 4.84363 19.3313 5.46912L20.5113 6.64909C21.1368 7.27459 21.1368 8.28795 20.514 8.91071ZM17.8154 9.75472L16.2284 8.16776L11.1534 13.2455L10.9541 15.0291L12.7377 14.8297L17.8154 9.75472ZM19.5853 7.57778L18.4054 6.3978C18.2934 6.28582 18.1104 6.28582 18.0011 6.3978L17.1571 7.24181L18.7441 8.82877L19.5881 7.98476C19.6973 7.87004 19.6973 7.68977 19.5853 7.57778Z" fill="#F2F2FD"/>
<path fill-rule="evenodd" clip-rule="evenodd" d="M17.4799 13.0054C17.4932 13.1685 17.5 13.3335 17.5 13.5C17.5 16.8137 14.8137 19.5 11.5 19.5C8.18629 19.5 5.5 16.8137 5.5 13.5C5.5 10.1863 8.18629 7.5 11.5 7.5C12.2396 7.5 12.948 7.63383 13.6022 7.87858L14.7446 6.73621C13.7627 6.26435 12.6622 6 11.5 6C7.35786 6 4 9.35786 4 13.5C4 17.6421 7.35786 21 11.5 21C15.6421 21 19 17.6421 19 13.5C19 12.8803 18.9248 12.2781 18.7831 11.7021L17.4799 13.0054ZM14.3322 8.2092C14.3323 8.20922 14.3323 8.20923 14.3323 8.20924L15.4304 7.11114C15.4304 7.11112 15.4304 7.11111 15.4303 7.11109L14.3322 8.2092ZM16.2284 8.16782L17.8153 9.75472L17 10.5695V10.5697L17.8154 9.75472L16.2284 8.16776L16.2284 8.16782Z" fill="#F2F2FD"/>
</g>
<defs>
<clipPath id="clip0_75_340">
<rect width="24" height="24" fill="white"/>
</clipPath>
</defs>
</svg>
