<svg width="24" height="24" viewBox="0 0 24 24" fill="none" xmlns="http://www.w3.org/2000/svg">
<g clip-path="url(#clip0_72_215)">
<path d="M16.2365 14.4227L17.1106 13.5487C17.2472 13.4121 17.4848 13.5077 17.4848 13.7044V17.6758C17.4848 18.3997 16.8976 18.9869 16.1737 18.9869H6.55913C5.8353 18.9869 5.24805 18.3997 5.24805 17.6758V8.06124C5.24805 7.33741 5.8353 6.75016 6.55913 6.75016H14.0296C14.2235 6.75016 14.3218 6.98506 14.1853 7.12436L13.3112 7.99842C13.2702 8.03939 13.2156 8.06124 13.1555 8.06124H6.55913V17.6758H16.1737V14.5757C16.1737 14.5183 16.1956 14.4637 16.2365 14.4227ZM20.514 8.91071L13.3412 16.0834L10.872 16.3566C10.1564 16.4358 9.5473 15.8321 9.62651 15.111L9.89965 12.6418L17.0724 5.46912C17.6979 4.84363 18.7085 4.84363 19.3312 5.46912L20.5112 6.64909C21.1367 7.27459 21.1367 8.28795 20.514 8.91071ZM17.8153 9.75472L16.2284 8.16776L11.1534 13.2455L10.954 15.0291L12.7376 14.8297L17.8153 9.75472ZM19.5853 7.57778L18.4053 6.3978C18.2933 6.28582 18.1103 6.28582 18.001 6.3978L17.157 7.24181L18.744 8.82877L19.588 7.98476C19.6973 7.87004 19.6973 7.68977 19.5853 7.57778Z" fill="#F2F2FD"/>
</g>
<defs>
<clipPath id="clip0_72_215">
<rect width="24" height="24" fill="white"/>
</clipPath>
</defs>
</svg>
