<svg width="22" height="22" viewBox="0 0 22 22" fill="none" xmlns="http://www.w3.org/2000/svg">
<g clip-path="url(#clip0_81_2372)">
<path d="M3.23993 8.51813C3.44438 8.32661 3.77585 8.32661 3.9803 8.51813L11.1219 15.2081C11.3263 15.3997 11.3263 15.7102 11.1219 15.9017L9.03529 17.8564C8.83085 18.0479 8.49937 18.0479 8.29493 17.8564L1.15333 11.1663C0.948889 10.9748 0.948889 10.6643 1.15333 10.4728L3.23993 8.51813Z" fill="#8DD96A"/>
<path d="M20.8467 6.0983C21.0511 6.28982 21.0511 6.60033 20.8467 6.79185L9.03529 17.8564C8.83085 18.0479 8.49937 18.0479 8.29493 17.8564L6.20834 15.9017C6.0039 15.7102 6.0039 15.3997 6.20834 15.2082L18.0197 4.14364C18.2241 3.95212 18.5556 3.95212 18.7601 4.14364L20.8467 6.0983Z" fill="#8DD96A"/>
</g>
<defs>
<clipPath id="clip0_81_2372">
<rect width="22" height="22" fill="white"/>
</clipPath>
</defs>
</svg>
